:SAMPLES-PER-SECOND 30
:FULLY-SPECIFIED
:DEGREES
562
root  -3.33843 41.0362 0.535264 4.35236 -84.5596 -1.2793
RightUpLeg  2.42925 -1.00364 -0.967387
RightLeg  -7.69402 -24.6043 3.71306
RightFoot  2.79815 -0.234668 2.04258
RightToes  -3.13588e-008 1.75238e-005 3.56266e-009
Spine  4.97615 -2.49337 -8.99555
Spine1  -7.03148 -3.93161 11.8503
HEad  -8.87142 1.39241 1.19816
LeftShoulder1  1.67478 -2.49825 -21.5433
LeftArm  -21.8671 -20.8545 -31.345
LeftForeArm  83.4475 -79.9264 -79.1526
LeftHand  -0.936357 -4.53176 11.2214
RightShoulder  0.971164 0.496212 17.7993
RightArm  -14.385 2.68364 17.7752
RightForeArm  98.9841 76.1982 125.702
RightHand  -1.37429 10.2685 -10.5369
LeftUpLeg  0.159359 0.861826 3.20945
LeftLeg  -4.80121 10.3445 -1.10212
LeftFoot  2.3269 0.419186 -3.55289
LeftToes  4.76812e-008 1.47286e-008 1.3089e-009
563
root  -3.31344 41.04 0.559425 4.24576 -84.4432 -0.981476
RightUpLeg  2.3077 -0.980775 -1.02021
RightLeg  -7.95238 -24.7317 3.80828
RightFoot  2.9541 -0.23899 2.06732
RightToes  -3.13588e-008 1.75238e-005 3.56266e-009
Spine  5.806 -3.29856 -9.05035
Spine1  -7.82173 -4.7366 12.0512
HEad  -9.1634 2.07502 1.04892
LeftShoulder1  1.68256 -2.66822 -20.8464
LeftArm  -22.1345 -22.5431 -30.614
LeftForeArm  78.4851 -79.721 -74.5377
LeftHand  -0.838328 -3.45437 11.2346
RightShoulder  1.03885 0.788075 17.7021
RightArm  -13.6082 1.11276 16.9701
RightForeArm  103.021 75.4689 129.718
RightHand  -1.35538 10.4614 -10.2793
LeftUpLeg  -0.0586409 0.776403 3.13234
LeftLeg  -4.89969 10.3255 -1.11892
LeftFoot  2.45645 0.412719 -3.45216
LeftToes  4.76812e-008 1.47286e-008 1.3089e-009
564
root  -3.28344 41.0419 0.587507 3.59686 -84.8122 -0.0208435
RightUpLeg  1.81325 -1.01453 -1.18
RightLeg  -7.77182 -24.382 3.69504
RightFoot  2.99001 -0.250775 2.15644
RightToes  -3.13588e-008 1.75238e-005 3.56266e-009
Spine  6.59487 -3.80692 -9.43004
Spine1  -8.74724 -5.26329 12.6317
HEad  -9.08216 2.58679 1.16009
LeftShoulder1  1.61439 -2.54469 -20.2453
LeftArm  -22.4624 -23.6825 -30.0481
LeftForeArm  73.8512 -79.4575 -70.1494
LeftHand  -0.88019 -3.89799 11.2608
RightShoulder  0.988871 0.617363 17.4759
RightArm  -12.7489 1.28445 17.1278
RightForeArm  104.088 75.2698 130.675
RightHand  -1.30707 10.5246 -9.89359
LeftUpLeg  -0.24412 0.617278 2.96869
LeftLeg  -5.20579 10.8693 -1.21975
LeftFoot  2.6552 0.400454 -3.26187
LeftToes  4.76812e-008 1.47286e-008 1.3089e-009
565
root  -3.23862 41.0452 0.604441 2.65787 -85.3256 1.19827
RightUpLeg  1.26715 -1.03631 -1.3336
RightLeg  -7.48747 -23.901 3.51696
RightFoot  3.00977 -0.266161 2.27664
RightToes  -3.13588e-008 1.75238e-005 3.56266e-009
Spine  7.32876 -4.03359 -9.83706
Spine1  -9.66543 -5.50902 13.3005
HEad  -9.26431 2.84136 0.854768
LeftShoulder1  1.71702 -2.93356 -20.2246
LeftArm  -23.7829 -25.9326 -28.4281
LeftForeArm  68.4808 -79.0213 -64.1519
LeftHand  -0.860808 -4.38389 10.4907
RightShoulder  0.97807 0.638787 17.0544
RightArm  -11.26 0.459983 17.0973
RightForeArm  106.964 74.3957 134.253
RightHand  -1.39159 10.0494 -10.8074
LeftUpLeg  -0.388109 0.539118 2.84968
LeftLeg  -5.53596 11.4381 -1.39829
LeftFoot  2.87672 0.395664 -3.18791
LeftToes  4.76812e-008 1.47286e-008 1.3089e-009
566
root  -3.21148 41.0448 0.6127 2.62497 -85.9217 1.32181
RightUpLeg  1.13102 -0.98635 -1.34875
RightLeg  -7.63877 -23.4007 3.50575
RightFoot  3.14038 -0.268233 2.27923
RightToes  -3.13588e-008 1.75238e-005 3.56266e-009
Spine  8.19026 -4.30315 -9.72919
Spine1  -10.4858 -5.72083 13.0562
HEad  -9.30368 2.76901 1.07724
LeftShoulder1  1.6246 -2.73586 -19.5501
LeftArm  -25.6737 -29.5655 -27.0977
LeftForeArm  63.5213 -78.4294 -57.9674
LeftHand  -0.853447 -4.00088 10.8056
RightShoulder  1.06997 1.00343 17.1889
RightArm  -8.96411 -0.557963 17.1425
RightForeArm  110.27 73.1917 138.366
RightHand  -1.39255 9.73615 -11.0236
LeftUpLeg  -0.437239 0.534403 2.83585
LeftLeg  -5.56115 12.0367 -1.46351
LeftFoot  2.87666 0.400484 -3.26279
LeftToes  4.76812e-008 1.47286e-008 1.3089e-009
